<svg xmlns="http://www.w3.org/2000/svg" xmlns:xlink="http://www.w3.org/1999/xlink" viewBox="0,0,256,256" width="48px" height="48px" fill-rule="nonzero"><defs><linearGradient x1="17.151" y1="8.498" x2="29.996" y2="37.571" gradientUnits="userSpaceOnUse" id="color-1"><stop offset="0" stop-color="#f09701"></stop><stop offset="1" stop-color="#e36001"></stop></linearGradient><linearGradient x1="1.319" y1="44.651" x2="25.671" y2="1.059" gradientUnits="userSpaceOnUse" id="color-2"><stop offset="0" stop-color="#a1aab3"></stop><stop offset="1" stop-color="#8f979e"></stop></linearGradient></defs><g fill="#f8f8f8" fill-rule="nonzero" stroke="none" stroke-width="1" stroke-linecap="butt" stroke-linejoin="miter" stroke-miterlimit="10" stroke-dasharray="" stroke-dashoffset="0" font-family="none" font-weight="none" font-size="none" text-anchor="none" style="mix-blend-mode: normal"><path d="M55.04,256c-30.39775,0 -55.04,-24.64225 -55.04,-55.04v-145.92c0,-30.39775 24.64225,-55.04 55.04,-55.04h145.92c30.39775,0 55.04,24.64225 55.04,55.04v145.92c0,30.39775 -24.64225,55.04 -55.04,55.04z" id="shape"></path></g><g fill="none" fill-rule="nonzero" stroke="none" stroke-width="1" stroke-linecap="butt" stroke-linejoin="miter" stroke-miterlimit="10" stroke-dasharray="" stroke-dashoffset="0" font-family="none" font-weight="none" font-size="none" text-anchor="none" style="mix-blend-mode: normal"><g transform="scale(5.33333,5.33333)"><path d="M8.108,18.006c2.426,-6.427 8.616,-11.006 15.892,-11.006c7.276,0 13.466,4.579 15.892,11.006c-3.239,-3.406 -9.135,-5.693 -15.892,-5.693c-6.757,0 -12.653,2.287 -15.892,5.693zM24,35.688c-6.757,0 -12.653,-2.287 -15.892,-5.693c2.426,6.426 8.616,11.005 15.892,11.005c7.276,0 13.466,-4.579 15.892,-11.006c-3.239,3.406 -9.135,5.694 -15.892,5.694z" fill="url(#color-1)"></path><path d="M39.512,4.744c0,1.515 -1.228,2.744 -2.744,2.744c-1.516,0 -2.744,-1.228 -2.744,-2.744c0,-1.516 1.229,-2.744 2.744,-2.744c1.515,0 2.744,1.228 2.744,2.744zM10.976,40.415c-1.818,0 -3.293,1.474 -3.293,3.293c0,1.818 1.474,3.293 3.293,3.293c1.819,0 3.293,-1.474 3.293,-3.293c-0.001,-1.819 -1.475,-3.293 -3.293,-3.293zM7.683,6.39c-1.212,0 -2.195,0.983 -2.195,2.195c0,1.212 0.983,2.195 2.195,2.195c1.212,0 2.195,-0.983 2.195,-2.195c0,-1.212 -0.983,-2.195 -2.195,-2.195z" fill="url(#color-2)"></path></g></g><g fill="#000000" fill-rule="nonzero" stroke="none" stroke-width="1" stroke-linecap="butt" stroke-linejoin="miter" stroke-miterlimit="10" stroke-dasharray="" stroke-dashoffset="0" font-family="none" font-weight="none" font-size="none" text-anchor="none" style="mix-blend-mode: normal"><g><path d="M32.31167,133.04833v-13.12h3.9v13.12c0,1.20667 -0.26667,2.27333 -0.8,3.2c-0.53333,0.92667 -1.28667,1.64 -2.26,2.14c-0.97333,0.50667 -2.07,0.76 -3.29,0.76v0c-2.00667,0 -3.57,-0.51 -4.69,-1.53c-1.12,-1.02 -1.68,-2.46333 -1.68,-4.33v0h3.93c0,0.92667 0.19667,1.61 0.59,2.05c0.38667,0.44667 1.00333,0.67 1.85,0.67v0c0.74667,0 1.34,-0.25667 1.78,-0.77c0.44667,-0.51333 0.67,-1.24333 0.67,-2.19zM47.85167,138.88833l-0.1,-1.44c-0.92667,1.13333 -2.21333,1.7 -3.86,1.7v0c-1.50667,0 -2.65667,-0.43667 -3.45,-1.31c-0.79333,-0.86667 -1.2,-2.13667 -1.22,-3.81v0v-9.23h3.76v9.1c0,1.46667 0.67,2.2 2.01,2.2v0c1.27333,0 2.15,-0.44333 2.63,-1.33v0v-9.97h3.77v14.09zM66.92167,131.77833v0.19c0,2.17333 -0.49333,3.91333 -1.48,5.22c-0.98667,1.30667 -2.31667,1.96 -3.99,1.96v0c-1.42667,0 -2.57667,-0.49667 -3.45,-1.49v0v6.64h-3.77v-19.5h3.49l0.13,1.38c0.91333,-1.09333 2.10333,-1.64 3.57,-1.64v0c1.73333,0 3.08333,0.64 4.05,1.92c0.96667,1.28667 1.45,3.06 1.45,5.32zM63.15167,131.69833v0c0,-1.31333 -0.23,-2.32333 -0.69,-3.03c-0.46667,-0.71333 -1.14333,-1.07 -2.03,-1.07v0c-1.18,0 -1.99,0.45 -2.43,1.35v0v5.77c0.46,0.92667 1.28,1.39 2.46,1.39v0c1.79333,0 2.69,-1.47 2.69,-4.41zM71.75167,124.79833l2.61,8.76l2.61,-8.76h4.03l-5.66,16.27l-0.31,0.75c-0.84667,1.84 -2.23667,2.76 -4.17,2.76v0c-0.54667,0 -1.10333,-0.08333 -1.67,-0.25v0v-2.85l0.58,0.01c0.70667,0 1.23667,-0.10667 1.59,-0.32c0.35333,-0.22 0.63,-0.58333 0.83,-1.09v0l0.44,-1.15l-4.93,-14.13zM83.23167,121.32833h3.76v3.47h2.41v2.76h-2.41v7.03c0,0.52 0.1,0.89333 0.3,1.12c0.2,0.22667 0.58333,0.34 1.15,0.34v0c0.41333,0 0.78333,-0.03 1.11,-0.09v0v2.85c-0.74,0.22667 -1.5,0.34 -2.28,0.34v0c-2.64,0 -3.98667,-1.33333 -4.04,-4v0v-7.59h-2.06v-2.76h2.06zM97.98167,139.14833v0c-2.06667,0 -3.74667,-0.63333 -5.04,-1.9c-1.3,-1.27333 -1.95,-2.96333 -1.95,-5.07v0v-0.36c0,-1.42 0.27333,-2.68667 0.82,-3.8c0.54667,-1.11333 1.32333,-1.97333 2.33,-2.58c1,-0.6 2.14333,-0.9 3.43,-0.9v0c1.92667,0 3.44333,0.60667 4.55,1.82c1.10667,1.21333 1.66,2.93667 1.66,5.17v0v1.54h-8.97c0.12,0.92 0.48667,1.65667 1.1,2.21c0.60667,0.55333 1.38,0.83 2.32,0.83v0c1.44667,0 2.58,-0.52333 3.4,-1.57v0l1.85,2.07c-0.56667,0.8 -1.33,1.42333 -2.29,1.87c-0.96667,0.44667 -2.03667,0.67 -3.21,0.67zM97.55167,127.57833v0c-0.74667,0 -1.35,0.25333 -1.81,0.76c-0.46667,0.50667 -0.76333,1.22667 -0.89,2.16v0h5.23v-0.3c-0.02,-0.83333 -0.24667,-1.47667 -0.68,-1.93c-0.43333,-0.46 -1.05,-0.69 -1.85,-0.69zM113.88167,124.70833l-0.05,3.62c-0.51333,-0.07333 -0.96333,-0.11 -1.35,-0.11v0c-1.42667,0 -2.36,0.48333 -2.8,1.45v0v9.22h-3.77v-14.09h3.56l0.1,1.68c0.75333,-1.29333 1.8,-1.94 3.14,-1.94v0c0.41333,0 0.80333,0.05667 1.17,0.17zM137.94167,119.92833v18.96h-3.9l-7.61,-12.48v12.48h-3.9v-18.96h3.9l7.62,12.5v-12.5zM140.52167,131.87833v-0.17c0,-1.39333 0.27,-2.63667 0.81,-3.73c0.54,-1.1 1.31333,-1.94667 2.32,-2.54c1.01333,-0.6 2.19,-0.9 3.53,-0.9v0c1.9,0 3.45,0.58 4.65,1.74c1.2,1.16667 1.87,2.74667 2.01,4.74v0l0.03,0.97c0,2.16 -0.60333,3.89333 -1.81,5.2c-1.20667,1.30667 -2.82667,1.96 -4.86,1.96c-2.03333,0 -3.65333,-0.65333 -4.86,-1.96c-1.21333,-1.3 -1.82,-3.07 -1.82,-5.31zM144.29167,131.98833v0c0,1.33333 0.25,2.35333 0.75,3.06c0.50667,0.70667 1.22667,1.06 2.16,1.06v0c0.91333,0 1.62667,-0.34667 2.14,-1.04c0.51333,-0.7 0.77,-1.82 0.77,-3.36v0c0,-1.30667 -0.25667,-2.32 -0.77,-3.04c-0.51333,-0.72667 -1.23333,-1.09 -2.16,-1.09v0c-0.92,0 -1.63333,0.36 -2.14,1.08c-0.5,0.71333 -0.75,1.82333 -0.75,3.33zM156.93167,121.32833h3.76v3.47h2.41v2.76h-2.41v7.03c0,0.52 0.1,0.89333 0.3,1.12c0.2,0.22667 0.58333,0.34 1.15,0.34v0c0.41333,0 0.78,-0.03 1.1,-0.09v0v2.85c-0.73333,0.22667 -1.49333,0.34 -2.28,0.34v0c-2.63333,0 -3.97667,-1.33333 -4.03,-4v0v-7.59h-2.06v-2.76h2.06zM171.68167,139.14833v0c-2.06667,0 -3.74667,-0.63333 -5.04,-1.9c-1.3,-1.27333 -1.95,-2.96333 -1.95,-5.07v0v-0.36c0,-1.42 0.27333,-2.68667 0.82,-3.8c0.54667,-1.11333 1.32,-1.97333 2.32,-2.58c1.00667,-0.6 2.15,-0.9 3.43,-0.9v0c1.92667,0 3.44667,0.60667 4.56,1.82c1.10667,1.21333 1.66,2.93667 1.66,5.17v0v1.54h-8.98c0.12667,0.92 0.49333,1.65667 1.1,2.21c0.61333,0.55333 1.39,0.83 2.33,0.83v0c1.44667,0 2.58,-0.52333 3.4,-1.57v0l1.85,2.07c-0.56667,0.8 -1.33333,1.42333 -2.3,1.87c-0.96,0.44667 -2.02667,0.67 -3.2,0.67zM171.25167,127.57833v0c-0.74667,0 -1.35333,0.25333 -1.82,0.76c-0.46,0.50667 -0.75667,1.22667 -0.89,2.16v0h5.24v-0.3c-0.02,-0.83333 -0.24667,-1.47667 -0.68,-1.93c-0.43333,-0.46 -1.05,-0.69 -1.85,-0.69zM192.31167,131.75833v0.21c0,2.26 -0.48333,4.02 -1.45,5.28c-0.96,1.26667 -2.30667,1.9 -4.04,1.9v0c-1.52667,0 -2.74333,-0.58667 -3.65,-1.76v0l-0.17,1.5h-3.39v-20h3.76v7.17c0.87333,-1.01333 2.01667,-1.52 3.43,-1.52v0c1.72,0 3.06667,0.63 4.04,1.89c0.98,1.26667 1.47,3.04333 1.47,5.33zM188.54167,131.69833v0c0,-1.42667 -0.22333,-2.46667 -0.67,-3.12c-0.45333,-0.65333 -1.12667,-0.98 -2.02,-0.98v0c-1.2,0 -2.02667,0.49 -2.48,1.47v0v5.56c0.46,0.98667 1.29333,1.48 2.5,1.48v0c1.22,0 2.02,-0.59667 2.4,-1.79v0c0.18,-0.57333 0.27,-1.44667 0.27,-2.62zM194.04167,131.87833v-0.17c0,-1.39333 0.26667,-2.63667 0.8,-3.73c0.54,-1.1 1.31667,-1.94667 2.33,-2.54c1.01333,-0.6 2.18667,-0.9 3.52,-0.9v0c1.9,0 3.45333,0.58 4.66,1.74c1.2,1.16667 1.87,2.74667 2.01,4.74v0l0.02,0.97c0,2.16 -0.60333,3.89333 -1.81,5.2c-1.20667,1.30667 -2.82333,1.96 -4.85,1.96c-2.03333,0 -3.65667,-0.65333 -4.87,-1.96c-1.20667,-1.3 -1.81,-3.07 -1.81,-5.31zM197.80167,131.98833v0c0,1.33333 0.25333,2.35333 0.76,3.06c0.5,0.70667 1.22,1.06 2.16,1.06v0c0.90667,0 1.61667,-0.34667 2.13,-1.04c0.51333,-0.7 0.77,-1.82 0.77,-3.36v0c0,-1.30667 -0.25667,-2.32 -0.77,-3.04c-0.51333,-0.72667 -1.23333,-1.09 -2.16,-1.09v0c-0.92,0 -1.63,0.36 -2.13,1.08c-0.50667,0.71333 -0.76,1.82333 -0.76,3.33zM209.12167,131.87833v-0.17c0,-1.39333 0.26667,-2.63667 0.8,-3.73c0.54,-1.1 1.31667,-1.94667 2.33,-2.54c1.00667,-0.6 2.18,-0.9 3.52,-0.9v0c1.9,0 3.45,0.58 4.65,1.74c1.20667,1.16667 1.88,2.74667 2.02,4.74v0l0.02,0.97c0,2.16 -0.60333,3.89333 -1.81,5.2c-1.20667,1.30667 -2.82333,1.96 -4.85,1.96c-2.03333,0 -3.65667,-0.65333 -4.87,-1.96c-1.20667,-1.3 -1.81,-3.07 -1.81,-5.31zM212.88167,131.98833v0c0,1.33333 0.25,2.35333 0.75,3.06c0.50667,0.70667 1.23,1.06 2.17,1.06v0c0.90667,0 1.61667,-0.34667 2.13,-1.04c0.51333,-0.7 0.77,-1.82 0.77,-3.36v0c0,-1.30667 -0.25667,-2.32 -0.77,-3.04c-0.51333,-0.72667 -1.23333,-1.09 -2.16,-1.09v0c-0.92,0 -1.63333,0.36 -2.14,1.08c-0.5,0.71333 -0.75,1.82333 -0.75,3.33zM233.52167,138.88833l-3.62,-5.65l-1.36,1.35v4.3h-3.76v-20h3.76v11.08l0.73,-0.94l3.61,-4.23h4.52l-5.09,5.87l5.53,8.22z"></path></g></g></svg>